TITLE ""
FILE "Step4_Track29.mp3" MP3
  TRACK 01 AUDIO
    TITLE "Step4_Track29_01"
    INDEX 01 00:00:00
  TRACK 02 AUDIO
    TITLE "Step4_Track29_02"
    INDEX 01 00:00:24
  TRACK 03 AUDIO
    TITLE "Step4_Track29_03"
    INDEX 01 00:01:70
  TRACK 04 AUDIO
    TITLE "Step4_Track29_04"
    INDEX 01 00:02:54
  TRACK 05 AUDIO
    TITLE "Step4_Track29_05"
    INDEX 01 00:03:44
  TRACK 06 AUDIO
    TITLE "Step4_Track29_06"
    INDEX 01 00:03:50
  TRACK 07 AUDIO
    TITLE "Step4_Track29_07"
    INDEX 01 00:08:02
  TRACK 08 AUDIO
    TITLE "Step4_Track29_08"
    INDEX 01 00:08:10
  TRACK 09 AUDIO
    TITLE "Step4_Track29_09"
    INDEX 01 00:09:09
  TRACK 10 AUDIO
    TITLE "Step4_Track29_10"
    INDEX 01 00:09:15
  TRACK 11 AUDIO
    TITLE "Step4_Track29_11"
    INDEX 01 00:11:45
  TRACK 12 AUDIO
    TITLE "Step4_Track29_12"
    INDEX 01 00:11:65
  TRACK 13 AUDIO
    TITLE "Step4_Track29_13"
    INDEX 01 00:12:61
  TRACK 14 AUDIO
    TITLE "Step4_Track29_14"
    INDEX 01 00:12:62
  TRACK 15 AUDIO
    TITLE "Step4_Track29_15"
    INDEX 01 00:14:67
  TRACK 16 AUDIO
    TITLE "Step4_Track29_16"
    INDEX 01 00:15:27
  TRACK 17 AUDIO
    TITLE "Step4_Track29_17"
    INDEX 01 00:16:23
  TRACK 18 AUDIO
    TITLE "Step4_Track29_18"
    INDEX 01 00:16:25
  TRACK 19 AUDIO
    TITLE "Step4_Track29_19"
    INDEX 01 00:18:73
  TRACK 20 AUDIO
    TITLE "Step4_Track29_20"
    INDEX 01 00:19:12
  TRACK 21 AUDIO
    TITLE "Step4_Track29_21"
    INDEX 01 00:20:13
  TRACK 22 AUDIO
    TITLE "Step4_Track29_22"
    INDEX 01 00:20:15
  TRACK 23 AUDIO
    TITLE "Step4_Track29_23"
    INDEX 01 00:23:33
  TRACK 24 AUDIO
    TITLE "Step4_Track29_24"
    INDEX 01 00:23:47
  TRACK 25 AUDIO
    TITLE "Step4_Track29_25"
    INDEX 01 00:24:50
  TRACK 26 AUDIO
    TITLE "Step4_Track29_26"
    INDEX 01 00:24:54
  TRACK 27 AUDIO
    TITLE "Step4_Track29_27"
    INDEX 01 00:27:27
  TRACK 28 AUDIO
    TITLE "Step4_Track29_28"
    INDEX 01 00:27:46
  TRACK 29 AUDIO
    TITLE "Step4_Track29_29"
    INDEX 01 00:28:48
  TRACK 30 AUDIO
    TITLE "Step4_Track29_30"
    INDEX 01 00:28:56
  TRACK 31 AUDIO
    TITLE "Step4_Track29_31"
    INDEX 01 00:31:36
  TRACK 32 AUDIO
    TITLE "Step4_Track29_32"
    INDEX 01 00:31:60
  TRACK 33 AUDIO
    TITLE "Step4_Track29_33"
    INDEX 01 00:32:48
  TRACK 34 AUDIO
    TITLE "Step4_Track29_34"
    INDEX 01 00:32:55
  TRACK 35 AUDIO
    TITLE "Step4_Track29_35"
    INDEX 01 00:35:67
  TRACK 36 AUDIO
    TITLE "Step4_Track29_36"
    INDEX 01 00:36:00
  TRACK 37 AUDIO
    TITLE "Step4_Track29_37"
    INDEX 01 00:37:02
  TRACK 38 AUDIO
    TITLE "Step4_Track29_38"
    INDEX 01 00:37:06
  TRACK 39 AUDIO
    TITLE "Step4_Track29_39"
    INDEX 01 00:39:36
  TRACK 40 AUDIO
    TITLE "Step4_Track29_40"
    INDEX 01 00:39:55
  TRACK 41 AUDIO
    TITLE "Step4_Track29_41"
    INDEX 01 00:40:51
  TRACK 42 AUDIO
    TITLE "Step4_Track29_42"
    INDEX 01 00:40:65
  TRACK 43 AUDIO
    TITLE "Step4_Track29_43"
    INDEX 01 00:44:00
